<?xml version="1.0" standalone="no"?>
<!DOCTYPE svg PUBLIC "-//W3C//DTD SVG 20010904//EN"
 "http://www.w3.org/TR/2001/REC-SVG-20010904/DTD/svg10.dtd">
<svg version="1.0" xmlns="http://www.w3.org/2000/svg"
 width="128.000000pt" height="128.000000pt" viewBox="0 0 128.000000 128.000000"
 preserveAspectRatio="xMidYMid meet">
<metadata>
Created by potrace 1.14, written by Peter Selinger 2001-2017
</metadata>
<g transform="translate(0.000000,128.000000) scale(0.100000,-0.100000)"
fill="#000000" stroke="none">
<path d="M815 1000 c-50 -25 -65 -49 -72 -115 -4 -39 0 -63 15 -98 38 -86 116
-108 227 -65 69 26 88 60 84 147 -4 66 -29 101 -96 132 -54 24 -108 24 -158
-1z m159 -41 c37 -29 36 -76 -1 -90 -35 -13 -90 -5 -114 17 -21 19 -25 64 -7
82 20 20 92 15 122 -9z m-99 -168 c53 -20 69 -45 36 -56 -30 -9 -111 38 -111
66 0 14 19 11 75 -10z"/>
<path d="M265 790 c-50 -25 -65 -49 -72 -115 -4 -39 0 -63 15 -98 38 -86 116
-108 227 -65 70 26 90 62 83 146 -4 43 -11 59 -38 87 -64 66 -140 82 -215 45z
m159 -41 c37 -29 36 -76 -1 -90 -35 -13 -90 -5 -114 17 -21 19 -25 64 -7 82
20 20 92 15 122 -9z m-99 -168 c53 -20 69 -45 36 -56 -30 -9 -111 38 -111 66
0 14 19 11 75 -10z"/>
<path d="M755 613 c-104 -30 -106 -32 -99 -72 18 -107 101 -174 179 -145 27
11 45 60 45 121 0 48 -4 63 -25 86 -29 30 -31 31 -100 10z"/>
<path d="M990 423 c-27 -24 -33 -38 -37 -80 -5 -47 -3 -53 31 -91 38 -41 160
-102 206 -102 37 0 13 16 -64 44 -133 49 -183 119 -137 193 30 47 64 50 168
13 48 -17 90 -32 93 -33 3 -1 6 3 8 8 4 15 -125 66 -183 72 -47 5 -55 3 -85
-24z"/>
<path d="M590 323 c-31 -12 -61 -48 -80 -101 -28 -74 -50 -181 -39 -188 11 -6
12 -4 38 104 25 104 51 147 96 162 46 15 117 -15 139 -59 27 -52 21 -87 -41
-228 -3 -7 1 -13 9 -13 8 0 25 30 41 70 34 87 36 156 6 194 -39 49 -119 77
-169 59z"/>
</g>
</svg>
